<svg width="466" height="65" viewBox="0 0 466 65" fill="none" xmlns="http://www.w3.org/2000/svg">
<path d="M34.1152 23.5938V4.20898C34.1152 3.06966 34.5059 2.10938 35.2871 1.32812C36.0684 0.514323 37.0124 0.107422 38.1191 0.107422C39.2585 0.107422 40.235 0.514323 41.0488 1.32812C41.8952 2.10938 42.3184 3.06966 42.3184 4.20898V60.8984C42.3184 62.0378 41.9115 63.0143 41.0977 63.8281C40.2839 64.6094 39.3236 65 38.2168 65C37.0449 65 36.0684 64.6094 35.2871 63.8281C34.5059 63.0143 34.1152 62.0378 34.1152 60.8984V59.0918C30.1113 63.0306 26.3678 65 22.8848 65H15.9023C13.1029 65 10.3034 63.7956 7.50391 61.3867L4.08594 58.5059C3.30469 57.7572 2.55599 56.5039 1.83984 54.7461C1.15625 52.9883 0.814453 51.3444 0.814453 49.8145V33.1152C0.814453 31.2598 1.20508 29.4694 1.98633 27.7441C2.76758 25.9863 3.67904 24.668 4.7207 23.7891L8.08984 20.9082C10.4987 18.8249 13.3307 17.7832 16.5859 17.7832H22.4941C25.7168 17.7832 28.6465 18.9225 31.2832 21.2012L34.1152 23.5938ZM22.2012 26.084H16.4883C15.2839 26.084 14.1934 26.5234 13.2168 27.4023L10.5801 29.6973C9.66862 30.5111 9.21289 31.5527 9.21289 32.8223V50.2051C9.21289 51.3444 9.75 52.3698 10.8242 53.2812L13.5098 55.5762C14.3561 56.3249 15.2513 56.6992 16.1953 56.6992H22.8848C23.7637 56.6992 24.8053 56.1947 26.0098 55.1855L32.5039 49.8145C33.5781 48.8704 34.1152 47.6986 34.1152 46.2988V37.4121C34.1152 35.4264 33.5456 33.9616 32.4062 33.0176L25.7168 27.3047C24.8379 26.4909 23.666 26.084 22.2012 26.084ZM102.865 33.3105V43.2227C102.865 44.3294 102.458 45.2897 101.645 46.1035C100.831 46.9173 99.8704 47.3242 98.7637 47.3242H69.7598V49.7168C69.7598 51.1165 70.362 52.3047 71.5664 53.2812L73.959 55.2832C75.2611 56.2923 76.498 56.7969 77.6699 56.7969H98.7637C99.8704 56.7969 100.831 57.2038 101.645 58.0176C102.458 58.7988 102.865 59.7591 102.865 60.8984C102.865 62.0052 102.442 62.9655 101.596 63.7793C100.782 64.5931 99.8379 65 98.7637 65H77.1328C75.7005 65 74.1868 64.707 72.5918 64.1211C71.0293 63.5026 69.8737 62.8678 69.125 62.2168L65.4629 58.9941C64.3236 58.0827 63.3633 56.8132 62.582 55.1855C61.8333 53.5579 61.459 52.0605 61.459 50.6934V31.8945C61.459 30.8203 61.8659 29.3717 62.6797 27.5488C63.526 25.7259 64.584 24.3099 65.8535 23.3008L69.2715 20.6152C71.5176 18.7923 74.0078 17.8809 76.7422 17.8809H88.2656C91.1628 17.8809 93.8971 19.0853 96.4688 21.4941L99.5449 24.4238C101.758 26.4095 102.865 29.3717 102.865 33.3105ZM69.8574 32.6758V39.0234H94.7598V33.3105C94.7598 31.7806 94.2878 30.6087 93.3438 29.7949L90.9512 27.6953C89.7142 26.6862 88.6074 26.1816 87.6309 26.1816H77.3281C76.0586 26.1816 74.903 26.6211 73.8613 27.5L71.4688 29.502C70.3945 30.3158 69.8574 31.3737 69.8574 32.6758ZM163.314 21.9824V29.7949L149.105 62.1191C148.194 64.0397 146.99 65 145.492 65H140.219C138.298 65 136.898 64.0072 136.02 62.0215L121.908 29.8926V21.9824C121.908 20.8431 122.299 19.8828 123.08 19.1016C123.894 18.2878 124.87 17.8809 126.01 17.8809C127.149 17.8809 128.109 18.2878 128.891 19.1016C129.704 19.8828 130.111 20.8431 130.111 21.9824V28.2812L142.611 56.4062L155.014 28.1836V21.9824C155.014 20.8431 155.421 19.8828 156.234 19.1016C157.048 18.2878 158.041 17.8809 159.213 17.8809C160.352 17.8809 161.312 18.2878 162.094 19.1016C162.908 19.8828 163.314 20.8431 163.314 21.9824ZM215.561 65H190.756C189.617 65 188.64 64.5931 187.826 63.7793C187.045 62.9329 186.654 61.9401 186.654 60.8008C186.654 59.694 187.045 58.7337 187.826 57.9199C188.64 57.1061 189.617 56.6992 190.756 56.6992H198.959V8.31055H190.658C189.519 8.31055 188.542 7.91992 187.729 7.13867C186.947 6.32487 186.557 5.34831 186.557 4.20898C186.557 3.06966 186.947 2.10938 187.729 1.32812C188.542 0.514323 189.519 0.107422 190.658 0.107422H203.158C204.265 0.107422 205.225 0.514323 206.039 1.32812C206.853 2.14193 207.26 3.10221 207.26 4.20898V56.6992H215.561C216.667 56.6992 217.628 57.1061 218.441 57.9199C219.255 58.7337 219.662 59.694 219.662 60.8008C219.662 61.9401 219.255 62.9329 218.441 63.7793C217.66 64.5931 216.7 65 215.561 65ZM284.213 32.6758V50.0098C284.213 53.6882 282.471 57.0898 278.988 60.2148C275.538 63.3398 271.973 64.9023 268.295 64.9023H258.676C254.932 64.9023 251.352 63.3236 247.934 60.166C244.516 56.9759 242.807 53.5905 242.807 50.0098V32.6758C242.807 29.0951 244.467 25.7259 247.787 22.5684C251.14 19.3783 254.77 17.7832 258.676 17.7832H268.295C271.973 17.7181 275.538 19.248 278.988 22.373C282.471 25.498 284.213 28.9323 284.213 32.6758ZM251.107 33.0176V49.6191C251.107 51.1165 251.645 52.3047 252.719 53.1836L255.795 55.8203C256.479 56.4062 257.439 56.6992 258.676 56.6992H268.197C269.597 56.6992 270.867 56.1947 272.006 55.1855L274.496 52.9883C275.505 52.207 276.01 51.1165 276.01 49.7168V33.1152C276.01 31.4876 275.505 30.2832 274.496 29.502L271.615 27.207C270.639 26.3932 269.499 25.9863 268.197 25.9863H259.701C257.846 25.9863 256.413 26.4258 255.404 27.3047L252.621 29.6973C251.612 30.5436 251.107 31.6504 251.107 33.0176ZM344.662 32.6758V50.0098C344.662 53.6882 342.921 57.0898 339.438 60.2148C335.987 63.3398 332.423 64.9023 328.744 64.9023H319.125C315.382 64.9023 311.801 63.3236 308.383 60.166C304.965 56.9759 303.256 53.5905 303.256 50.0098V32.6758C303.256 29.0951 304.916 25.7259 308.236 22.5684C311.589 19.3783 315.219 17.7832 319.125 17.7832H328.744C332.423 17.7181 335.987 19.248 339.438 22.373C342.921 25.498 344.662 28.9323 344.662 32.6758ZM311.557 33.0176V49.6191C311.557 51.1165 312.094 52.3047 313.168 53.1836L316.244 55.8203C316.928 56.4062 317.888 56.6992 319.125 56.6992H328.646C330.046 56.6992 331.316 56.1947 332.455 55.1855L334.945 52.9883C335.954 52.207 336.459 51.1165 336.459 49.7168V33.1152C336.459 31.4876 335.954 30.2832 334.945 29.502L332.064 27.207C331.088 26.3932 329.949 25.9863 328.646 25.9863H320.15C318.295 25.9863 316.863 26.4258 315.854 27.3047L313.07 29.6973C312.061 30.5436 311.557 31.6504 311.557 33.0176ZM375.277 17.8809H394.076C397.006 17.8809 399.594 18.7598 401.84 20.5176C404.086 22.2428 405.209 23.9355 405.209 25.5957C405.209 26.7676 404.786 27.7279 403.939 28.4766C403.126 29.2253 402.214 29.5996 401.205 29.5996C399.903 29.5996 398.715 29.0137 397.641 27.8418C396.566 26.6699 395.443 26.084 394.271 26.084H375.717C373.894 26.084 372.982 26.849 372.982 28.3789C372.982 29.4531 373.585 30.2669 374.789 30.8203L396.615 40.4883C398.829 41.4648 400.635 43.0436 402.035 45.2246C403.467 47.373 404.184 49.7656 404.184 52.4023C404.184 55.918 402.93 58.8965 400.424 61.3379C397.95 63.7793 395.134 65 391.977 65H375.375C372.51 65 369.841 64.1374 367.367 62.4121C364.926 60.6868 363.705 59.0104 363.705 57.3828C363.705 56.3086 364.096 55.3646 364.877 54.5508C365.691 53.7044 366.732 53.2812 368.002 53.2812C369.044 53.2812 370.15 53.8672 371.322 55.0391C372.527 56.2109 374.252 56.7969 376.498 56.7969H391.781C392.986 56.7969 393.995 56.3411 394.809 55.4297C395.622 54.4857 396.029 53.4115 396.029 52.207C396.029 50.3516 395.118 49.0169 393.295 48.2031L371.273 38.291C369.158 37.347 367.53 35.9798 366.391 34.1895C365.251 32.3991 364.682 30.5762 364.682 28.7207C364.682 25.791 365.691 23.252 367.709 21.1035C369.76 18.9551 372.283 17.8809 375.277 17.8809ZM465.561 33.3105V43.2227C465.561 44.3294 465.154 45.2897 464.34 46.1035C463.526 46.9173 462.566 47.3242 461.459 47.3242H432.455V49.7168C432.455 51.1165 433.057 52.3047 434.262 53.2812L436.654 55.2832C437.956 56.2923 439.193 56.7969 440.365 56.7969H461.459C462.566 56.7969 463.526 57.2038 464.34 58.0176C465.154 58.7988 465.561 59.7591 465.561 60.8984C465.561 62.0052 465.137 62.9655 464.291 63.7793C463.477 64.5931 462.533 65 461.459 65H439.828C438.396 65 436.882 64.707 435.287 64.1211C433.725 63.5026 432.569 62.8678 431.82 62.2168L428.158 58.9941C427.019 58.0827 426.059 56.8132 425.277 55.1855C424.529 53.5579 424.154 52.0605 424.154 50.6934V31.8945C424.154 30.8203 424.561 29.3717 425.375 27.5488C426.221 25.7259 427.279 24.3099 428.549 23.3008L431.967 20.6152C434.213 18.7923 436.703 17.8809 439.438 17.8809H450.961C453.858 17.8809 456.592 19.0853 459.164 21.4941L462.24 24.4238C464.454 26.4095 465.561 29.3717 465.561 33.3105ZM432.553 32.6758V39.0234H457.455V33.3105C457.455 31.7806 456.983 30.6087 456.039 29.7949L453.646 27.6953C452.41 26.6862 451.303 26.1816 450.326 26.1816H440.023C438.754 26.1816 437.598 26.6211 436.557 27.5L434.164 29.502C433.09 30.3158 432.553 31.3737 432.553 32.6758Z" fill="black"/>
</svg>
