<svg width="122" height="136" viewBox="0 0 122 136" fill="none" xmlns="http://www.w3.org/2000/svg">
<path d="M3 76.15C3 43.2891 29.6391 16.3 62.5 16.3V16.3C95.3609 16.3 122 43.2891 122 76.15V76.15C122 109.011 95.3609 136 62.5 136V136C29.6391 136 3 109.011 3 76.15V76.15Z" fill="black"/>
<path d="M64.8914 3C64.8914 12.6422 65.4692 69.0262 64.9941 78.6585C64.8955 80.6561 64.8914 82.6525 64.8914 84.6511C64.8914 86.2259 65.269 83.7444 65.302 83.6523C66.4924 80.3274 68.5886 76.5311 73.4105 76.1616C79.4792 75.6966 84.9668 80.2983 87.5748 84.2349C90.0953 88.0393 90.667 93.7389 83.9825 94.8467C80.1741 95.4779 75.9869 94.082 72.4868 93.1405C64.9847 91.1227 57.5987 88.7817 50.0086 86.9815C48.8518 86.7071 46.0186 85.6711 45.5951 87.3144C45.1142 89.181 45.2117 91.3334 45.1332 93.2238C45.0846 94.3959 45.9958 106.022 47.1091 105.313C50.2596 103.306 52.502 100.621 55.8335 98.6961C61.0214 95.6991 67.1442 93.426 73.4362 92.5163C75.6834 92.1914 79.3732 91.7827 80.6467 93.848C82.0357 96.1008 81.4139 99.2527 81.0316 101.63C80.9952 101.856 80.1466 105.069 80.2874 104.626C81.1645 101.87 82.6608 99.1305 84.9832 96.9691C87.9248 94.2314 92.4802 92.2765 97.0177 92.2458C99.7634 92.2272 104.028 93.5979 103.125 96.4905C101.548 101.54 90.5087 102.581 85.753 102.65C71.9173 102.848 58.8814 98.2053 48.4177 91.0806C42.5062 87.0554 37.1397 81.8324 37.23 75.2461C37.2921 70.7091 39.8152 66.3233 45.6978 65.3209C57.0752 63.3821 66.3365 70.8924 65.4046 79.8653C64.2864 90.6329 54.1193 98.041 43.4397 103.503C35.1874 107.723 28.2688 110.061 19.114 112.408C13.2504 113.912 8.79237 114.05 2.99956 114.572" stroke="white" stroke-width="6" stroke-linecap="round"/>
</svg>

