<svg width="75" height="140" viewBox="0 0 75 140" fill="none" xmlns="http://www.w3.org/2000/svg">
<path d="M37.7383 3.13159C37.7383 3.13159 20.223 10.545 16.4957 37.0087C12.7684 63.4724 24.3201 123.895 24.3201 123.895" stroke="white" stroke-width="5"/>
<path d="M36.2461 3.09058C36.2461 3.09058 54.4285 10.2517 58.4554 36.6723C62.4824 63.0929 51.2771 123.352 51.2771 123.352" stroke="white" stroke-width="5"/>
<path d="M22 121.354L53.5 121.354" stroke="white" stroke-width="5"/>
<line x1="17.9805" y1="28.5452" x2="57.4967" y2="28.5452" stroke="white" stroke-width="5"/>
<path d="M3.5 137L22.7829 114.783" stroke="white" stroke-width="5"/>
<path d="M53.4805 114.838L71.5 138" stroke="white" stroke-width="5"/>
<line x1="18.562" y1="88.7293" x2="2.90741" y2="111.838" stroke="white" stroke-width="5"/>
<line x1="57.3546" y1="87.4628" x2="72.2638" y2="110.572" stroke="white" stroke-width="5"/>
<line x1="3.33594" y1="110.436" x2="3.33594" y2="138.764" stroke="white" stroke-width="5"/>
<path d="M71.918 109V139.509" stroke="white" stroke-width="5"/>
<line x1="38.375" y1="87.3167" x2="38.375" y2="139.52" stroke="white" stroke-width="5"/>
<circle cx="37.7363" cy="56.3908" r="11.2909" stroke="white" stroke-width="5"/>
</svg>
