<svg width="82" height="155" viewBox="0 0 82 155" fill="none" xmlns="http://www.w3.org/2000/svg">
<path d="M41.0527 2.81982C41.0527 2.81982 21.6066 11.0505 17.4684 40.4315C13.3302 69.8125 26.1553 136.896 26.1553 136.896" stroke="#192357" stroke-width="5"/>
<path d="M39.3965 2.77417C39.3965 2.77417 59.5833 10.7247 64.0541 40.0579C68.525 69.391 56.0845 136.293 56.0845 136.293" stroke="#192357" stroke-width="5"/>
<path d="M23.5801 134.075L58.5526 134.075" stroke="#192357" stroke-width="5"/>
<line x1="19.1172" y1="31.3103" x2="62.9896" y2="31.3103" stroke="#192357" stroke-width="5"/>
<path d="M3.03906 151.446L24.4477 126.779" stroke="#192357" stroke-width="5"/>
<path d="M58.5293 126.841L78.5353 152.556" stroke="#192357" stroke-width="5"/>
<line x1="19.5346" y1="97.699" x2="2.15434" y2="123.356" stroke="#192357" stroke-width="5"/>
<line x1="62.5988" y1="96.5968" x2="79.1515" y2="122.253" stroke="#192357" stroke-width="5"/>
<line x1="2.58203" y1="121.953" x2="2.58203" y2="153.403" stroke="#192357" stroke-width="5"/>
<path d="M79 120.359V154.231" stroke="#192357" stroke-width="5"/>
<line x1="41.4844" y1="96.2852" x2="41.4844" y2="154.243" stroke="#192357" stroke-width="5"/>
<circle cx="41.0495" cy="61.9501" r="12.8112" stroke="#192357" stroke-width="5"/>
</svg>
