<svg width="223" height="227" viewBox="0 0 223 227" fill="none" xmlns="http://www.w3.org/2000/svg">
<path d="M0 114.156C0 52.5761 49.9203 2 111.5 2V2C173.08 2 223 52.5761 223 114.156V114.156C223 175.736 173.08 226.312 111.5 226.312V226.312C49.9203 226.312 0 175.736 0 114.156V114.156Z" fill="black"/>
<path d="M115.981 2.37476C115.981 20.4438 117.064 100.806 116.173 118.857C115.989 122.6 115.981 126.341 115.981 130.086C115.981 133.038 116.689 128.387 116.75 128.215C118.981 121.984 122.909 114.87 131.945 114.178C143.318 113.306 153.601 121.93 158.489 129.307C163.212 136.436 164.283 147.117 151.757 149.193C144.62 150.375 136.773 147.759 130.214 145.995C116.156 142.214 102.315 137.827 88.0914 134.454C85.9236 133.939 80.6143 131.998 79.8207 135.077C78.9194 138.575 79.1022 142.609 78.9552 146.151C78.864 148.348 80.5715 170.135 82.6578 168.806C88.5618 165.044 92.7638 160.013 99.0068 156.406C108.729 150.79 120.203 146.53 131.993 144.825C136.205 144.217 143.119 143.451 145.506 147.321C148.109 151.543 146.943 157.449 146.227 161.904C146.159 162.328 144.568 168.348 144.832 167.519C146.476 162.354 149.28 157.22 153.632 153.17C159.144 148.039 167.681 144.376 176.184 144.319C181.329 144.284 189.321 146.852 187.628 152.273C184.674 161.735 163.986 163.687 155.075 163.815C129.147 164.186 104.718 155.486 85.1101 142.135C74.0322 134.592 63.9757 124.804 64.1448 112.462C64.2613 103.96 68.9895 95.7411 80.0131 93.8627C101.334 90.2295 118.689 104.303 116.943 121.118C114.847 141.296 95.7946 155.179 75.7815 165.413C60.3172 173.322 47.3521 177.703 30.1965 182.102C19.2083 184.919 26.2349 183.211 26.2349 183.211" stroke="white" stroke-width="4" stroke-linecap="round"/>
</svg>
